name Run_50002_IK.mot
datacolumns 164
datarows 4
range 1.46 1.49
endheader
time	         pelvis_tilt	         pelvis_list	     pelvis_rotation	           pelvis_tx	           pelvis_ty	           pelvis_tz	       hip_flexion_r	     hip_adduction_r	      hip_rotation_r	        knee_angle_r	       ankle_angle_r	       hip_flexion_l	     hip_adduction_l	      hip_rotation_l	        knee_angle_l	       ankle_angle_l	    lumbar_extension	      lumbar_bending	     lumbar_rotation	          arm_flex_r	           arm_add_r	           arm_rot_r	        elbow_flex_r	           pro_sup_r	          arm_flex_l	           arm_add_l	           arm_rot_l	        elbow_flex_l	           pro_sup_l	    subtalar_angle_r	         mtp_angle_r	    subtalar_angle_l	         mtp_angle_l	        wrist_flex_r	         wrist_dev_r	        wrist_flex_l	         wrist_dev_l	             LASI_tx	             LASI_ty	             LASI_tz	             RASI_tx	             RASI_ty	             RASI_tz	             LPSI_tx	             LPSI_ty	             LPSI_tz	             RPSI_tx	             RPSI_ty	             RPSI_tz	             RTH1_tx	             RTH1_ty	             RTH1_tz	             RTH2_tx	             RTH2_ty	             RTH2_tz	             RTH3_tx	             RTH3_ty	             RTH3_tz	             LTH1_tx	             LTH1_ty	             LTH1_tz	             LTH2_tx	             LTH2_ty	             LTH2_tz	             LTH3_tx	             LTH3_ty	             LTH3_tz	             RTB1_tx	             RTB1_ty	             RTB1_tz	             RTB2_tx	             RTB2_ty	             RTB2_tz	             RTB3_tx	             RTB3_ty	             RTB3_tz	             LTB1_tx	             LTB1_ty	             LTB1_tz	             LTB2_tx	             LTB2_ty	             LTB2_tz	             LTB3_tx	             LTB3_ty	             LTB3_tz	             RCAL_tx	             RCAL_ty	             RCAL_tz	             RTOE_tx	             RTOE_ty	             RTOE_tz	             RMT5_tx	             RMT5_ty	             RMT5_tz	             LCAL_tx	             LCAL_ty	             LCAL_tz	             LTOE_tx	             LTOE_ty	             LTOE_tz	             LMT5_tx	             LMT5_ty	             LMT5_tz	             LACR_tx	             LACR_ty	             LACR_tz	             RACR_tx	             RACR_ty	             RACR_tz	             CLAV_tx	             CLAV_ty	             CLAV_tz	               C7_tx	               C7_ty	               C7_tz	             RUA1_tx	             RUA1_ty	             RUA1_tz	             RUA2_tx	             RUA2_ty	             RUA2_tz	             RUA3_tx	             RUA3_ty	             RUA3_tz	             RLEL_tx	             RLEL_ty	             RLEL_tz	             RMEL_tx	             RMEL_ty	             RMEL_tz	             LUA1_tx	             LUA1_ty	             LUA1_tz	             LUA2_tx	             LUA2_ty	             LUA2_tz	             LUA3_tx	             LUA3_ty	             LUA3_tz	             LLEL_tx	             LLEL_ty	             LLEL_tz	             LMEL_tx	             LMEL_ty	             LMEL_tz	      RFAsuperior_tx	      RFAsuperior_ty	      RFAsuperior_tz	        RFAradius_tx	        RFAradius_ty	        RFAradius_tz	          RFAulna_tx	          RFAulna_ty	          RFAulna_tz	      LFAsuperior_tx	      LFAsuperior_ty	      LFAsuperior_tz	        LFAradius_tx	        LFAradius_ty	        LFAradius_tz	          LFAulna_tx	          LFAulna_ty	          LFAulna_tz	
1.46	        -13.36861379	         -2.14732395	         -3.22940276	          0.99723038	          1.02220300	         -0.34731571	         -0.04856404	          7.93072593	          4.13086327	        -73.99189557	        -12.27934106	         46.39236870	          1.15239455	         -3.41332260	        -17.29532456	          2.30303246	          2.04386550	          2.03426901	         15.46856827	        -24.28572596	        -19.94672112	        -11.82262388	        121.77472352	        120.98270616	        -55.36628334	        -12.47042488	        -19.17510679	        120.14694879	        103.72407588	          0.00000000	          0.00000000	          0.00000000	          0.00000000	          0.00000000	          0.00000000	          0.00000000	          0.00000000	          1.01647152	          1.04870595	         -0.44316472	          1.01546045	          1.06479874	         -0.22674692	          0.84955947	          1.11960964	         -0.41653431	          0.85947770	          1.11988164	         -0.30333883	          0.92937743	          0.94244887	         -0.19034334	          0.83792108	          0.81522728	         -0.21243816	          0.83279226	          0.65947384	         -0.23083366	          0.97294905	          0.93933305	         -0.54436915	          0.98583876	          0.78015603	         -0.48139140	          1.09738044	          0.68676665	         -0.48085707	          0.67694870	          0.48061155	         -0.30578505	          0.61833118	          0.55341063	         -0.23833659	          0.48407526	          0.48696226	         -0.31207657	          1.24424121	          0.51324631	         -0.41121060	          1.18838176	          0.38203422	         -0.44794098	          1.27492501	          0.29972988	         -0.38477326	          0.36311363	          0.59468683	         -0.29222159	          0.32067281	          0.36690838	         -0.36510023	          0.28646707	          0.39739310	         -0.26951893	          1.19946040	          0.13181126	         -0.34185862	          1.42278950	          0.20787966	         -0.33666670	          1.40289490	          0.12494401	         -0.40816419	          0.96451996	          1.56009490	         -0.51892069	          1.03835435	          1.52444735	         -0.21171009	          1.06277858	          1.49488557	         -0.34817659	          0.94530158	          1.57165583	         -0.35253857	          0.94552581	          1.43505197	         -0.12560109	          0.99325047	          1.37609166	         -0.10599056	          0.93464668	          1.30786834	         -0.04728122	          0.90994439	          1.24802499	         -0.01323984	          0.88949270	          1.21753270	         -0.09702410	          0.83576864	          1.52135813	         -0.53993668	          0.81849739	          1.44726548	         -0.57646748	          0.72030604	          1.42977879	         -0.56968536	          0.67053997	          1.37500816	         -0.58204188	          0.67957328	          1.34571089	         -0.49712992	          1.00937839	          1.21693377	         -0.04824468	          1.12469597	          1.22315257	         -0.18865434	          1.13897525	          1.17825361	         -0.13769222	          0.71087764	          1.30540036	         -0.60304806	          0.88778423	          1.23546946	         -0.57676413	          0.84946363	          1.18486530	         -0.61016955	
1.47	        -13.47854030	         -1.65851321	         -3.14668963	          0.99705248	          1.01759568	         -0.34789445	          2.69709160	          6.95698668	          3.10079664	        -81.14643209	        -10.42168085	         45.63101684	          1.65640805	         -4.27344492	        -18.39020412	          3.19396966	          2.28895861	          1.35946069	         14.98132051	        -25.67502689	        -19.70988435	        -12.46824034	        118.66874070	        120.18811336	        -53.76856122	        -12.15384642	        -19.22720100	        119.51631745	        103.63206072	          0.00000000	          0.00000000	          0.00000000	          0.00000000	          0.00000000	          0.00000000	          0.00000000	          0.00000000	          1.01625614	          1.04509383	         -0.44284813	          1.01668345	          1.06059211	         -0.22762361	          0.84937433	          1.11596452	         -0.41612514	          0.85984467	          1.11543636	         -0.30275911	          0.92631445	          0.93654691	         -0.19270077	          0.84308685	          0.80852095	         -0.21423807	          0.84426989	          0.65203651	         -0.22876799	          0.97179623	          0.93457403	         -0.54460456	          0.98259471	          0.77505154	         -0.48066793	          1.09242643	          0.68010845	         -0.47930382	          0.69146974	          0.48143018	         -0.30206542	          0.63816517	          0.56037851	         -0.23661141	          0.49981200	          0.50274513	         -0.30908736	          1.23458647	          0.50245702	         -0.41033957	          1.17443458	          0.37296304	         -0.44641597	          1.25859774	          0.28799168	         -0.38299941	          0.38611079	          0.62030742	         -0.29432194	          0.32961613	          0.39192597	         -0.35521837	          0.29922019	          0.42926171	         -0.26071918	          1.17734655	          0.12164383	         -0.33907516	          1.40292174	          0.19281412	         -0.33728670	          1.37913159	          0.11076909	         -0.40889992	          0.96425413	          1.55495454	         -0.52086886	          1.03812195	          1.52116862	         -0.21171088	          1.06282420	          1.49140537	         -0.34903669	          0.94503263	          1.56812323	         -0.35420598	          0.94200197	          1.43357992	         -0.12698418	          0.98827961	          1.37413135	         -0.10572909	          0.92772847	          1.30736575	         -0.04777393	          0.90078922	          1.24886298	         -0.01312470	          0.88079847	          1.21784856	         -0.09655964	          0.83511593	          1.51401802	         -0.54261890	          0.82043297	          1.43785236	         -0.57803480	          0.72323406	          1.41646983	         -0.57187309	          0.67498548	          1.36117038	         -0.58371084	          0.68440359	          1.33256115	         -0.49877451	          0.99916529	          1.21092203	         -0.04428950	          1.11979997	          1.20492209	         -0.18097355	          1.12844179	          1.16059224	         -0.12836125	          0.71646254	          1.29245364	         -0.60482067	          0.89494314	          1.22601836	         -0.57867646	          0.85725664	          1.17490345	         -0.61194234	
1.48	        -13.60970675	         -1.30100822	         -3.17619533	          0.99671476	          1.01225648	         -0.34850457	          5.60055693	          6.01857191	          2.30465843	        -87.92348873	         -8.26722052	         44.81590137	          1.87586029	         -4.81791098	        -20.04666912	          3.71843703	          2.56415881	          0.86766603	         14.45767503	        -27.00722034	        -19.59247513	        -13.03179093	        115.29392191	        119.44445042	        -51.92986728	        -11.87605763	        -19.06365426	        118.57713549	        103.84244707	          0.00000000	          0.00000000	          0.00000000	          0.00000000	          0.00000000	          0.00000000	          0.00000000	          0.00000000	          1.01635270	          1.04059156	         -0.44296002	          1.01736316	          1.05596248	         -0.22926903	          0.84950114	          1.11142921	         -0.41614440	          0.85969043	          1.11057732	         -0.30288377	          0.92337703	          0.93014839	         -0.19496904	          0.84889059	          0.80146094	         -0.21561931	          0.85695466	          0.64417917	         -0.22595330	          0.97100904	          0.92944228	         -0.54406139	          0.97888370	          0.76931370	         -0.47963899	          1.08768507	          0.67336556	         -0.47761707	          0.70824876	          0.48113635	         -0.29731337	          0.66029468	          0.56594230	         -0.23446515	          0.51884543	          0.51558528	         -0.30582241	          1.22333797	          0.49007491	         -0.41011604	          1.15740540	          0.36351756	         -0.44638020	          1.23827424	          0.27462086	         -0.38357625	          0.41133348	          0.64151653	         -0.29729246	          0.34445717	          0.41259597	         -0.34483157	          0.31716956	          0.45656565	         -0.25225331	          1.14976690	          0.11082353	         -0.33941569	          1.37806628	          0.17368315	         -0.33974153	          1.34978972	          0.09253161	         -0.41128894	          0.96422767	          1.54858694	         -0.52304407	          1.03721785	          1.51727945	         -0.21142485	          1.06287362	          1.48729352	         -0.34965972	          0.94451325	          1.56362071	         -0.35609072	          0.93775222	          1.43114358	         -0.12858232	          0.98264981	          1.37122390	         -0.10549350	          0.92021373	          1.30594923	         -0.04816752	          0.89118952	          1.24912622	         -0.01304391	          0.87209631	          1.21739903	         -0.09631231	          0.83466878	          1.50503822	         -0.54600484	          0.82323059	          1.42666381	         -0.58032342	          0.72709859	          1.40131044	         -0.57511240	          0.68055940	          1.34544442	         -0.58666581	          0.69009197	          1.31764280	         -0.50159958	          0.98792154	          1.20435086	         -0.04013638	          1.11289334	          1.18512255	         -0.17221958	          1.11567166	          1.14180690	         -0.11796416	          0.72326719	          1.27743813	         -0.60752718	          0.90306436	          1.21454213	         -0.58038629	          0.86637155	          1.16287725	         -0.61389720	
1.49	        -13.71668649	         -1.10355369	         -3.29628677	          0.99657962	          1.00607802	         -0.34892839	          8.59384924	          5.20549714	          1.71613094	        -94.27206426	         -6.07818749	         43.82723479	          1.78250546	         -5.17401796	        -21.98914467	          3.30114700	          2.84345986	          0.52757604	         13.82010555	        -28.25483813	        -19.55972023	        -13.47790656	        111.65526072	        118.67315646	        -50.01235417	        -11.60277566	        -18.75413022	        117.39634250	        104.27115535	          0.00000000	          0.00000000	          0.00000000	          0.00000000	          0.00000000	          0.00000000	          0.00000000	          0.00000000	          1.01704887	          1.03494287	         -0.44328883	          1.01768924	          1.05078604	         -0.23148800	          0.85022751	          1.10574746	         -0.41638052	          0.85917999	          1.10510417	         -0.30338792	          0.92161323	          0.92309218	         -0.19603497	          0.85559961	          0.79365455	         -0.21579101	          0.87108060	          0.63599369	         -0.22225635	          0.97064458	          0.92355040	         -0.54248516	          0.97464226	          0.76255596	         -0.47896148	          1.08270013	          0.66570460	         -0.47701606	          0.72718802	          0.47971864	         -0.29183511	          0.68441497	          0.56953566	         -0.23193662	          0.54062888	          0.52532412	         -0.30243113	          1.21028285	          0.47569850	         -0.41041082	          1.13857513	          0.35268029	         -0.44812234	          1.21501918	          0.25935602	         -0.38619458	          0.43835212	          0.65812747	         -0.30037195	          0.36390644	          0.42902671	         -0.33452305	          0.33925411	          0.47901407	         -0.24429591	          1.11822614	          0.10141708	         -0.34226632	          1.34936197	          0.14980329	         -0.34367844	          1.31564389	          0.07075578	         -0.41538151	          0.96471232	          1.54109868	         -0.52541798	          1.03538140	          1.51234601	         -0.21173368	          1.06289713	          1.48256551	         -0.34995852	          0.94371857	          1.55813013	         -0.35826766	          0.93285399	          1.42811151	         -0.13043168	          0.97644111	          1.36765870	         -0.10544196	          0.91219061	          1.30379467	         -0.04877454	          0.88119915	          1.24892930	         -0.01326300	          0.86357426	          1.21635040	         -0.09676722	          0.83502676	          1.49430776	         -0.55017474	          0.82719965	          1.41392766	         -0.58331062	          0.73209611	          1.38476076	         -0.57925511	          0.68741895	          1.32820042	         -0.59082789	          0.69686903	          1.30140771	         -0.50547545	          0.97573098	          1.19736069	         -0.03597899	          1.10395706	          1.16404800	         -0.16233449	          1.10060914	          1.12225621	         -0.10660190	          0.73138612	          1.26056182	         -0.61098021	          0.91210986	          1.20104837	         -0.58171595	          0.87673664	          1.14875288	         -0.61569611	
